<?xml version="1.0" standalone="no"?>
<!DOCTYPE svg PUBLIC "-//W3C//DTD SVG 20010904//EN"
 "http://www.w3.org/TR/2001/REC-SVG-20010904/DTD/svg10.dtd">
<svg version="1.0" xmlns="http://www.w3.org/2000/svg"
 width="1024.000000pt" height="1024.000000pt" viewBox="0 0 1024.000000 1024.000000"
 preserveAspectRatio="xMidYMid meet">
<metadata>
Created by potrace 1.16, written by Peter Selinger 2001-2019
</metadata>
<g transform="translate(0.000000,1024.000000) scale(0.100000,-0.100000)"
fill="#000000" stroke="none">
<path d="M6785 8500 c-10 -18 -15 -56 -15 -105 0 -75 11 -115 31 -115 6 0 3
10 -5 22 -21 30 -22 158 -1 198 9 17 13 30 11 30 -3 0 -12 -13 -21 -30z"/>
<path d="M5108 8493 c6 -2 18 -2 25 0 6 3 1 5 -13 5 -14 0 -19 -2 -12 -5z"/>
<path d="M6859 8414 c2 -66 -1 -90 -14 -112 l-16 -27 20 24 c17 19 21 37 21
100 0 42 -4 81 -8 88 -4 6 -5 -27 -3 -73z"/>
<path d="M5200 8464 c0 -5 9 -17 19 -26 22 -19 82 -57 66 -42 -63 58 -85 76
-85 68z"/>
<path d="M5004 8428 l-29 -33 33 29 c17 17 32 31 32 33 0 8 -8 1 -36 -29z"/>
<path d="M4905 8343 c-22 -19 -31 -31 -20 -25 19 9 74 63 64 62 -2 -1 -22 -17
-44 -37z"/>
<path d="M7194 8338 c-15 -18 -15 -20 -2 -9 10 7 29 11 43 9 14 -3 25 -1 25 3
0 5 -4 9 -9 9 -5 0 -16 2 -23 5 -8 3 -23 -5 -34 -17z"/>
<path d="M6396 8343 c12 -2 41 -22 63 -44 23 -21 45 -39 49 -39 4 0 -14 20
-40 45 -30 29 -55 45 -70 44 -22 -2 -22 -2 -2 -6z"/>
<path d="M5360 8315 c23 -31 41 -48 45 -43 3 2 -10 18 -27 34 -18 16 -26 20
-18 9z"/>
<path d="M6361 8314 c0 -11 6 -29 14 -40 8 -10 15 -14 15 -8 0 5 -4 14 -9 20
-5 5 -11 18 -14 29 -5 20 -5 19 -6 -1z"/>
<path d="M7140 8289 c0 -5 5 -7 10 -4 6 3 10 8 10 11 0 2 -4 4 -10 4 -5 0 -10
-5 -10 -11z"/>
<path d="M7105 8261 c-16 -19 -16 -20 2 -18 11 0 19 8 19 19 0 22 1 22 -21 -1z"/>
<path d="M5365 8250 c-3 -6 1 -7 9 -4 18 7 21 14 7 14 -6 0 -13 -4 -16 -10z"/>
<path d="M5420 8256 c0 -2 8 -10 18 -17 15 -13 16 -12 3 4 -13 16 -21 21 -21
13z"/>
<path d="M4776 8225 c-29 -25 -34 -44 -6 -22 17 13 45 47 39 47 -2 0 -17 -11
-33 -25z"/>
<path d="M6510 8246 c0 -2 7 -7 16 -10 8 -3 12 -2 9 4 -6 10 -25 14 -25 6z"/>
<path d="M7200 8235 c-19 -22 -8 -25 13 -3 9 10 13 18 8 18 -5 0 -14 -7 -21
-15z"/>
<path d="M5131 8238 c2 -2 18 -15 35 -30 l30 -28 -1 27 c0 15 -7 28 -15 30
-13 4 -13 3 0 -6 8 -5 11 -13 7 -17 -4 -4 -15 0 -25 9 -10 10 -22 17 -27 17
-5 0 -6 -1 -4 -2z"/>
<path d="M5057 8212 c-25 -27 -21 -36 5 -12 12 11 19 22 16 25 -2 3 -12 -3
-21 -13z"/>
<path d="M7101 8189 c-1 -22 3 -26 25 -26 17 0 22 2 13 8 -7 4 -16 6 -20 3 -4
-2 -10 6 -12 18 -4 21 -4 21 -6 -3z"/>
<path d="M6775 8180 c-27 -7 -27 -8 -5 -8 14 0 36 4 50 8 20 6 21 8 5 8 -11 0
-33 -4 -50 -8z"/>
<path d="M5510 8176 c0 -2 8 -10 18 -17 15 -13 16 -12 3 4 -13 16 -21 21 -21
13z"/>
<path d="M6868 8173 c7 -3 16 -2 19 1 4 3 -2 6 -13 5 -11 0 -14 -3 -6 -6z"/>
<path d="M6470 8165 c0 -3 12 -10 27 -16 19 -7 29 -6 37 2 8 9 8 10 -1 5 -6
-3 -23 -2 -37 4 -14 5 -26 7 -26 5z"/>
<path d="M6700 8160 c-13 -9 -13 -10 0 -10 8 0 22 5 30 10 13 9 13 10 0 10 -8
0 -22 -5 -30 -10z"/>
<path d="M5550 8136 c0 -2 8 -10 18 -17 15 -13 16 -12 3 4 -13 16 -21 21 -21
13z"/>
<path d="M6960 8136 c0 -3 9 -10 20 -16 11 -6 20 -8 20 -6 0 3 -9 10 -20 16
-11 6 -20 8 -20 6z"/>
<path d="M4960 8119 c0 -5 5 -7 10 -4 6 3 10 8 10 11 0 2 -4 4 -10 4 -5 0 -10
-5 -10 -11z"/>
<path d="M4655 8110 c-3 -5 -1 -10 4 -10 6 0 11 5 11 10 0 6 -2 10 -4 10 -3 0
-8 -4 -11 -10z"/>
<path d="M6619 8093 c-13 -16 -12 -17 4 -4 9 7 17 15 17 17 0 8 -8 3 -21 -13z"/>
<path d="M5602 8084 c10 -10 20 -16 22 -13 3 3 -5 11 -17 18 -21 13 -21 12 -5
-5z"/>
<path d="M5314 8071 c20 -22 26 -25 26 -13 0 4 -10 13 -22 21 -23 14 -23 14
-4 -8z"/>
<path d="M4895 8060 c-26 -29 -15 -32 13 -4 12 13 19 24 14 24 -5 0 -17 -9
-27 -20z"/>
<path d="M4589 8043 c-13 -16 -12 -17 4 -4 9 7 17 15 17 17 0 8 -8 3 -21 -13z"/>
<path d="M5630 8056 c0 -2 7 -7 16 -10 8 -3 12 -2 9 4 -6 10 -25 14 -25 6z"/>
<path d="M7050 8055 c0 -5 5 -17 10 -25 5 -8 10 -10 10 -5 0 6 -5 17 -10 25
-5 8 -10 11 -10 5z"/>
<path d="M4556 8013 c-6 -14 -5 -15 5 -6 7 7 10 15 7 18 -3 3 -9 -2 -12 -12z"/>
<path d="M5630 8021 c0 -5 7 -12 16 -15 14 -5 15 -4 4 9 -14 17 -20 19 -20 6z"/>
<path d="M5682 8014 c10 -10 20 -16 22 -13 3 3 -5 11 -17 18 -21 13 -21 12 -5
-5z"/>
<path d="M6561 8023 c-1 -6 -4 -20 -7 -30 -5 -17 -5 -17 6 0 6 10 9 23 6 30
-3 9 -5 9 -5 0z"/>
<path d="M4816 7984 c-23 -23 -20 -30 4 -9 11 10 20 20 20 22 0 7 -9 2 -24
-13z"/>
<path d="M5391 7997 c2 -1 15 -11 29 -22 l25 -20 -19 23 c-11 12 -24 22 -29
22 -6 0 -8 -1 -6 -3z"/>
<path d="M7088 7920 c2 -41 6 -77 8 -79 7 -8 2 104 -6 129 -4 14 -5 -8 -2 -50z"/>
<path d="M6541 7954 c0 -11 3 -14 6 -6 3 7 2 16 -1 19 -3 4 -6 -2 -5 -13z"/>
<path d="M4461 7933 c-7 -8 -11 -16 -8 -19 2 -2 10 2 17 11 17 20 9 27 -9 8z"/>
<path d="M6206 7931 c-10 -11 -16 -28 -13 -38 4 -14 5 -13 6 5 1 15 5 21 13
16 6 -4 8 -3 4 4 -3 5 0 12 6 15 7 2 10 7 7 11 -3 3 -14 -3 -23 -13z"/>
<path d="M6324 7941 c59 -4 91 -10 94 -19 2 -6 8 -9 13 -6 6 3 5 11 -2 20 -8
10 -35 14 -103 12 l-91 -1 89 -6z"/>
<path d="M7213 7942 c-6 -4 31 -5 83 -4 64 3 99 0 109 -8 9 -7 15 -8 15 -2 0
5 -7 13 -16 16 -22 8 -177 7 -191 -2z"/>
<path d="M5760 7936 c0 -3 9 -10 20 -16 11 -6 20 -8 20 -6 0 3 -9 10 -20 16
-11 6 -20 8 -20 6z"/>
<path d="M4724 7898 l-19 -23 25 20 c14 11 27 21 29 22 2 2 0 3 -6 3 -5 0 -18
-10 -29 -22z"/>
<path d="M5495 7900 c21 -24 26 -25 19 -6 -3 8 -13 17 -22 21 -13 5 -13 2 3
-15z"/>
<path d="M7191 7904 c-1 -25 37 -54 71 -54 17 1 12 5 -17 15 -22 8 -41 15 -42
15 -1 0 -4 10 -6 23 -4 21 -4 21 -6 1z"/>
<path d="M6213 7880 c2 -24 4 -25 92 -28 81 -3 94 -1 118 18 16 12 26 24 23
27 -2 3 -15 -4 -27 -16 -19 -18 -35 -21 -98 -21 -79 0 -94 5 -104 30 -4 9 -6
4 -4 -10z"/>
<path d="M6541 7875 c-1 -22 19 -99 24 -93 2 1 -3 28 -10 58 -7 30 -14 46 -14
35z"/>
<path d="M4395 7869 c-4 -6 -5 -12 -2 -15 2 -3 7 2 10 11 7 17 1 20 -8 4z"/>
<path d="M5836 7867 c2 -7 14 -19 27 -26 21 -13 21 -12 -2 13 -27 29 -33 32
-25 13z"/>
<path d="M4660 7839 c0 -5 5 -7 10 -4 6 3 10 8 10 11 0 2 -4 4 -10 4 -5 0 -10
-5 -10 -11z"/>
<path d="M4635 7832 c4 -8 -1 -23 -11 -35 -18 -22 -18 -22 6 0 20 19 22 25 11
35 -11 11 -13 10 -6 0z"/>
<path d="M5585 7820 c21 -24 26 -25 19 -6 -3 8 -13 17 -22 21 -13 5 -13 2 3
-15z"/>
<path d="M5908 7801 c13 -11 21 -24 18 -29 -2 -4 4 -8 14 -8 24 0 18 10 -23
36 -30 21 -31 21 -9 1z"/>
<path d="M3025 7790 c-4 -7 3 -8 22 -4 38 9 42 14 10 14 -14 0 -29 -5 -32 -10z"/>
<path d="M4304 7778 l-19 -23 23 19 c12 11 22 21 22 23 0 8 -8 2 -26 -19z"/>
<path d="M7050 7795 c0 -5 5 -17 10 -25 5 -8 10 -10 10 -5 0 6 -5 17 -10 25
-5 8 -10 11 -10 5z"/>
<path d="M5620 7788 c0 -2 15 -18 33 -35 27 -25 33 -27 33 -13 0 10 -3 17 -7
14 -4 -2 -18 6 -33 17 -14 11 -26 19 -26 17z"/>
<path d="M2974 7770 c-20 -8 -39 -38 -30 -47 2 -3 7 4 10 14 3 11 18 24 34 30
15 6 23 11 17 11 -5 1 -19 -3 -31 -8z"/>
<path d="M3125 7770 c3 -5 11 -10 16 -10 6 0 7 5 4 10 -3 6 -11 10 -16 10 -6
0 -7 -4 -4 -10z"/>
<path d="M4574 7754 c-18 -14 -18 -15 4 -4 12 6 22 13 22 15 0 8 -5 6 -26 -11z"/>
<path d="M6600 7735 c14 -16 26 -32 28 -34 1 -2 4 -2 7 1 3 2 -10 18 -28 34
l-32 29 25 -30z"/>
<path d="M4214 7699 c-19 -22 -19 -22 4 -8 12 8 22 17 22 21 0 12 -6 9 -26
-13z"/>
<path d="M6017 7699 c12 -12 24 -21 27 -18 2 2 -8 13 -22 23 l-27 19 22 -24z"/>
<path d="M2946 7693 c-6 -14 -5 -15 5 -6 7 7 10 15 7 18 -3 3 -9 -2 -12 -12z"/>
<path d="M5730 7687 c0 -10 63 -66 73 -67 5 0 2 6 -5 13 -52 47 -68 60 -68 54z"/>
<path d="M6970 7680 c-8 -5 -10 -10 -5 -10 6 0 17 5 25 10 8 5 11 10 5 10 -5
0 -17 -5 -25 -10z"/>
<path d="M4479 7663 c-13 -16 -12 -17 4 -4 16 13 21 21 13 21 -2 0 -10 -8 -17
-17z"/>
<path d="M5780 7676 c0 -2 7 -9 15 -16 9 -7 15 -8 15 -2 0 5 -7 12 -15 16 -8
3 -15 4 -15 2z"/>
<path d="M6665 7670 c3 -5 11 -10 16 -10 6 0 7 5 4 10 -3 6 -11 10 -16 10 -6
0 -7 -4 -4 -10z"/>
<path d="M3420 7660 c14 -4 34 -8 45 -8 16 0 15 2 -5 8 -14 4 -34 8 -45 8 -16
0 -15 -2 5 -8z"/>
<path d="M4430 7666 c0 -2 7 -9 15 -16 13 -11 14 -10 9 4 -5 14 -24 23 -24 12z"/>
<path d="M2912 7640 c0 -14 2 -19 5 -12 2 6 2 18 0 25 -3 6 -5 1 -5 -13z"/>
<path d="M3330 7629 c-37 -32 -27 -30 29 8 19 13 27 23 20 23 -8 0 -30 -14
-49 -31z"/>
<path d="M6535 7645 c11 -9 20 -20 20 -25 0 -4 3 -12 8 -16 9 -9 9 18 -1 32
-4 6 -16 14 -27 17 l-20 7 20 -15z"/>
<path d="M6710 7650 c8 -5 22 -9 30 -9 10 0 8 3 -5 9 -27 12 -43 12 -25 0z"/>
<path d="M6910 7650 c-11 -8 -7 -9 15 -4 37 8 45 14 19 14 -10 0 -26 -5 -34
-10z"/>
<path d="M4128 7620 c-39 -38 -35 -48 4 -11 18 17 30 32 28 34 -3 2 -17 -8
-32 -23z"/>
<path d="M6080 7644 c0 -7 49 -56 83 -83 32 -25 17 -6 -33 42 -28 27 -50 45
-50 41z"/>
<path d="M6790 7630 c8 -5 24 -10 34 -10 26 0 18 6 -19 14 -22 5 -26 4 -15 -4z"/>
<path d="M7077 7633 c-4 -3 -7 -11 -7 -17 0 -6 5 -5 12 2 6 6 9 14 7 17 -3 3
-9 2 -12 -2z"/>
<path d="M7134 7631 c4 -6 16 -16 28 -22 15 -8 18 -8 14 0 -4 6 -16 16 -28 22
-15 8 -18 8 -14 0z"/>
<path d="M3526 7617 c3 -9 10 -17 14 -17 5 0 11 -8 13 -17 4 -15 5 -15 6 -2 0
9 -8 24 -19 34 -18 17 -20 17 -14 2z"/>
<path d="M6470 7620 c0 -5 5 -10 11 -10 5 0 7 5 4 10 -3 6 -8 10 -11 10 -2 0
-4 -4 -4 -10z"/>
<path d="M4399 7593 c-13 -17 -13 -17 6 -3 11 8 22 16 24 17 2 2 0 3 -6 3 -6
0 -17 -8 -24 -17z"/>
<path d="M5828 7592 c9 -10 19 -17 21 -16 6 5 -20 34 -30 34 -5 0 -1 -8 9 -18z"/>
<path d="M2922 7595 c0 -5 6 -26 13 -45 7 -19 14 -28 14 -20 0 8 -6 29 -14 45
-7 17 -13 26 -13 20z"/>
<path d="M7070 7586 c0 -2 8 -10 18 -17 15 -13 16 -12 3 4 -13 16 -21 21 -21
13z"/>
<path d="M5860 7566 c0 -2 8 -10 18 -17 15 -13 16 -12 3 4 -13 16 -21 21 -21
13z"/>
<path d="M7237 7540 c11 -14 23 -34 26 -45 5 -19 5 -19 6 1 0 11 -11 31 -26
45 l-28 24 22 -25z"/>
<path d="M2695 7530 c-36 -24 -26 -26 17 -4 21 11 44 14 72 10 29 -4 37 -3 26
4 -25 16 -83 11 -115 -10z"/>
<path d="M3246 7534 c-5 -14 -4 -15 9 -4 17 14 19 20 6 20 -5 0 -12 -7 -15
-16z"/>
<path d="M3561 7540 c0 -8 4 -22 9 -30 12 -18 12 -2 0 25 -6 13 -9 15 -9 5z"/>
<path d="M6197 7529 c7 -7 15 -10 18 -7 3 3 -2 9 -12 12 -14 6 -15 5 -6 -5z"/>
<path d="M6795 7530 c-8 -13 5 -13 25 0 13 8 13 10 -2 10 -9 0 -20 -4 -23 -10z"/>
<path d="M2838 7523 c7 -3 16 -2 19 1 4 3 -2 6 -13 5 -11 0 -14 -3 -6 -6z"/>
<path d="M4319 7513 c-13 -16 -12 -17 4 -4 16 13 21 21 13 21 -2 0 -10 -8 -17
-17z"/>
<path d="M6376 7513 c-4 -9 -1 -23 7 -30 12 -12 13 -9 9 17 -5 34 -7 37 -16
13z"/>
<path d="M6479 7513 c-13 -16 -12 -17 4 -4 9 7 17 15 17 17 0 8 -8 3 -21 -13z"/>
<path d="M6773 7440 c0 -47 2 -66 4 -42 2 23 2 61 0 85 -2 23 -4 4 -4 -43z"/>
<path d="M7162 7493 c19 -21 23 -22 31 -7 11 20 2 29 -29 29 l-24 1 22 -23z
m28 7 c0 -5 -4 -10 -10 -10 -5 0 -10 5 -10 10 0 6 5 10 10 10 6 0 10 -4 10
-10z"/>
<path d="M4255 7500 c-3 -5 -1 -10 4 -10 6 0 11 5 11 10 0 6 -2 10 -4 10 -3 0
-8 -4 -11 -10z"/>
<path d="M3967 7472 l-27 -28 24 1 c13 0 28 4 32 8 5 4 1 5 -9 1 -22 -8 -22 4
0 28 26 29 9 21 -20 -10z"/>
<path d="M5935 7490 c3 -5 8 -10 11 -10 2 0 4 5 4 10 0 6 -5 10 -11 10 -5 0
-7 -4 -4 -10z"/>
<path d="M6245 7473 c0 -24 4 -28 27 -28 l28 -1 -27 28 c-15 15 -27 28 -28 28
0 0 -1 -12 0 -27z m25 -13 c0 -5 -4 -10 -10 -10 -5 0 -10 5 -10 10 0 6 5 10
10 10 6 0 10 -4 10 -10z"/>
<path d="M6862 7422 c-1 -46 -7 -92 -12 -103 -7 -12 -7 -19 -1 -19 15 0 23 56
19 135 l-4 70 -2 -83z"/>
<path d="M2627 7443 c-9 -9 -9 -75 1 -90 4 -6 7 13 7 43 0 30 0 54 -1 54 0 0
-4 -3 -7 -7z"/>
<path d="M4210 7417 c-19 -17 -42 -41 -49 -52 -8 -11 8 2 37 30 47 45 57 55
50 55 -2 0 -19 -15 -38 -33z"/>
<path d="M5990 7441 c0 -6 4 -13 10 -16 6 -3 7 1 4 9 -7 18 -14 21 -14 7z"/>
<path d="M4167 7429 c7 -7 15 -10 18 -7 3 3 -2 9 -12 12 -14 6 -15 5 -6 -5z"/>
<path d="M3526 7414 c-5 -14 -4 -15 9 -4 17 14 19 20 6 20 -5 0 -12 -7 -15
-16z"/>
<path d="M5113 7423 c9 -2 23 -2 30 0 6 3 -1 5 -18 5 -16 0 -22 -2 -12 -5z"/>
<path d="M6025 7419 c-11 -16 -1 -19 13 -3 7 8 8 14 3 14 -5 0 -13 -5 -16 -11z"/>
<path d="M6333 7407 c9 -8 17 -18 17 -22 0 -4 -8 -4 -17 0 -14 5 -15 3 -6 -6
12 -12 33 -5 33 11 0 5 -10 14 -22 20 -21 10 -21 10 -5 -3z"/>
<path d="M3875 7390 c-10 -11 -16 -20 -13 -20 3 0 15 9 28 20 13 11 19 20 13
20 -5 0 -18 -9 -28 -20z"/>
<path d="M4998 7403 c7 -3 16 -2 19 1 4 3 -2 6 -13 5 -11 0 -14 -3 -6 -6z"/>
<path d="M5275 7390 c27 -12 43 -12 25 0 -8 5 -22 9 -30 9 -10 0 -8 -3 5 -9z"/>
<path d="M6040 7393 c0 -5 13 -17 28 -27 l27 -19 -24 26 c-26 28 -31 32 -31
20z"/>
<path d="M4920 7375 c-14 -8 -20 -14 -14 -15 5 0 19 7 30 15 24 18 16 19 -16
0z"/>
<path d="M6370 7370 c0 -5 5 -10 11 -10 5 0 7 5 4 10 -3 6 -8 10 -11 10 -2 0
-4 -4 -4 -10z"/>
<path d="M5382 7334 c15 -15 30 -26 33 -23 2 3 -10 16 -28 29 l-32 23 27 -29z"/>
<path d="M4840 7323 c-12 -16 -24 -26 -28 -23 -3 3 -6 1 -7 -5 -1 -5 0 -7 3
-2 2 4 8 5 12 2 5 -3 14 4 20 15 6 11 15 18 21 14 6 -4 5 -12 -3 -22 -12 -15
-11 -16 5 -3 12 10 14 17 7 26 -8 9 -7 15 2 18 9 4 9 6 1 6 -6 1 -21 -11 -33
-26z"/>
<path d="M6100 7341 c0 -5 7 -12 16 -15 14 -5 15 -4 4 9 -14 17 -20 19 -20 6z"/>
<path d="M6770 7337 c0 -17 32 -47 50 -47 7 0 10 3 6 8 -4 4 -13 7 -19 7 -7 0
-13 10 -15 23 -4 24 -22 31 -22 9z"/>
<path d="M3390 7325 c-17 -10 -20 -14 -9 -15 9 0 22 7 29 15 15 18 12 18 -20
0z"/>
<path d="M3815 7330 c-3 -5 -1 -10 4 -10 6 0 11 5 11 10 0 6 -2 10 -4 10 -3 0
-8 -4 -11 -10z"/>
<path d="M6410 7330 c0 -5 5 -10 11 -10 5 0 7 5 4 10 -3 6 -8 10 -11 10 -2 0
-4 -4 -4 -10z"/>
<path d="M5448 7277 c12 -13 19 -27 15 -32 -5 -4 -2 -5 5 -1 11 6 8 13 -9 32
-12 13 -25 24 -27 24 -3 0 4 -10 16 -23z"/>
<path d="M2687 7279 c7 -7 15 -10 18 -7 3 3 -2 9 -12 12 -14 6 -15 5 -6 -5z"/>
<path d="M3393 7283 c9 -2 23 -2 30 0 6 3 -1 5 -18 5 -16 0 -22 -2 -12 -5z"/>
<path d="M4075 7278 c-3 -7 -4 -305 -3 -663 l3 -650 5 663 c3 364 4 662 2 662
-1 0 -5 -6 -7 -12z"/>
<path d="M6160 6882 l5 -407 3 399 c1 220 -1 403 -5 407 -5 5 -6 -175 -3 -399z"/>
<path d="M3458 7273 c6 -2 18 -2 25 0 6 3 1 5 -13 5 -14 0 -19 -2 -12 -5z"/>
<path d="M2740 7250 c14 -4 34 -8 45 -8 l20 -1 -20 9 c-11 5 -31 8 -45 8 l-25
0 25 -8z"/>
<path d="M4767 7254 c-3 -5 1 -15 9 -22 16 -14 18 -5 5 17 -5 7 -11 9 -14 5z"/>
<path d="M6461 7244 c0 -11 3 -14 6 -6 3 7 2 16 -1 19 -3 4 -6 -2 -5 -13z"/>
<path d="M3560 7240 c0 -5 5 -10 11 -10 5 0 7 5 4 10 -3 6 -8 10 -11 10 -2 0
-4 -4 -4 -10z"/>
<path d="M5480 7235 c5 -22 -1 -27 -17 -14 -15 11 -16 11 -6 -1 17 -19 41 -21
39 -4 -1 7 -6 17 -10 21 -4 4 -7 4 -6 -2z"/>
<path d="M5263 7222 c-9 -5 -6 -12 10 -21 19 -13 21 -12 10 1 -7 8 -10 18 -6
21 9 9 1 8 -14 -1z"/>
<path d="M5064 7080 c0 -74 1 -105 3 -67 2 37 2 97 0 135 -2 37 -3 6 -3 -68z"/>
<path d="M6406 7191 c-4 -5 -3 -17 0 -26 6 -15 8 -14 25 1 15 14 17 19 7 26
-17 10 -26 10 -32 -1z m24 -11 c0 -5 -4 -10 -10 -10 -5 0 -10 5 -10 10 0 6 5
10 10 10 6 0 10 -4 10 -10z"/>
<path d="M3790 7186 c0 -2 8 -10 18 -17 15 -13 16 -12 3 4 -13 16 -21 21 -21
13z"/>
<path d="M4909 7163 l-24 -28 28 24 c25 23 32 31 24 31 -2 0 -14 -12 -28 -27z"/>
<path d="M4702 7143 c-15 -39 -32 -105 -31 -123 0 -8 11 21 24 65 23 80 27
110 7 58z"/>
<path d="M5524 7136 c0 -25 3 -30 12 -22 10 9 6 32 -10 53 -1 1 -2 -13 -2 -31z"/>
<path d="M2770 7149 c0 -5 5 -7 10 -4 6 3 10 8 10 11 0 2 -4 4 -10 4 -5 0 -10
-5 -10 -11z"/>
<path d="M3623 7115 c0 -45 1 -47 10 -22 6 18 6 37 0 50 -8 17 -10 11 -10 -28z"/>
<path d="M7316 7134 c-84 -43 -187 -126 -173 -140 4 -4 16 1 27 11 11 10 20
13 20 8 0 -18 -48 -45 -53 -30 -11 35 -99 -115 -118 -204 -14 -63 -7 -215 11
-248 9 -17 9 -29 1 -45 -33 -66 -93 -237 -86 -244 2 -3 9 6 15 19 9 20 9 18 5
-15 -7 -42 2 -116 14 -116 4 0 18 30 31 68 13 37 41 112 62 167 38 99 40 101
87 123 67 30 189 153 223 224 40 81 58 172 59 290 1 162 -21 186 -125 132z
m75 -3 c-9 -6 -11 -30 -5 -103 4 -67 3 -97 -5 -102 -16 -10 -15 196 1 212 6 6
14 9 17 6 3 -3 0 -9 -8 -13z m-38 -12 c-6 -20 -40 -39 -76 -42 -10 -1 -15 -7
-12 -15 2 -7 1 -11 -4 -7 -5 3 -20 1 -33 -4 -16 -6 -3 -8 49 -7 39 0 74 -2 78
-6 4 -4 7 -77 7 -163 0 -109 3 -153 10 -149 6 4 8 2 5 -3 -4 -6 -25 -9 -47 -7
-37 3 -55 -9 -27 -19 6 -2 8 -8 4 -13 -14 -14 -27 19 -27 69 l0 47 -80 0 -80
0 0 -40 c0 -40 0 -40 39 -40 l39 0 4 -70 c4 -87 3 -90 -30 -90 -34 0 -48 -10
-54 -35 -3 -11 -3 28 0 88 l5 107 -40 0 c-39 0 -41 2 -48 36 -3 20 -4 38 -2
41 3 2 22 5 43 6 l39 3 0 79 0 80 41 -1 41 -1 -1 40 c-1 30 4 43 19 51 10 6
25 17 33 24 7 7 18 10 23 7 5 -4 9 -1 9 4 0 6 7 11 15 11 8 0 15 4 15 8 0 7
17 19 47 31 0 1 -1 -8 -4 -20z m67 -126 c-2 -160 -7 -196 -28 -188 -12 4 -12
3 -3 -9 6 -7 8 -21 5 -31 -5 -13 -9 -14 -15 -3 -10 16 -3 67 18 128 11 34 13
67 8 138 -4 65 -3 92 5 92 8 0 11 -39 10 -127z m-317 -97 c4 -11 1 -13 -10 -9
-10 4 -14 2 -10 -4 8 -13 -21 -73 -35 -73 -5 0 -8 3 -6 8 3 4 13 26 23 50 19
44 29 52 38 28z m3 -83 c-11 -11 -19 6 -11 24 8 17 8 17 12 0 3 -10 2 -21 -1
-24z m-79 -175 c-2 -18 -4 -4 -4 32 0 36 2 50 4 33 2 -18 2 -48 0 -65z m333
53 c0 -10 -30 -24 -37 -17 -3 3 -2 9 2 15 8 13 35 15 35 2z m-50 -56 c-7 -9
-15 -13 -17 -11 -6 6 20 36 26 30 2 -2 -2 -10 -9 -19z m-80 -10 c0 -8 -4 -15
-10 -15 -5 0 -10 7 -10 15 0 8 5 15 10 15 6 0 10 -7 10 -15z m25 -40 c-29 -28
-40 -28 -29 -1 6 16 44 38 52 31 2 -2 -9 -15 -23 -30z m-196 -25 c14 0 20 -10
24 -47 7 -61 1 -67 -13 -13 -6 22 -18 44 -26 47 -7 3 -13 15 -13 27 1 16 2 17
6 4 2 -10 13 -18 22 -18z m131 -20 c13 -9 13 -11 0 -20 -8 -5 -20 -10 -27 -10
-6 0 -13 -6 -16 -12 -2 -8 -8 -9 -13 -4 -5 5 -4 11 3 13 7 2 11 10 9 16 -1 7
-1 9 1 5 6 -11 33 -10 33 1 0 5 -6 12 -12 14 -7 3 -8 6 -3 6 6 0 17 -4 25 -9z
m-115 -121 c-6 -19 -9 -20 -16 -6 -11 20 0 52 13 39 6 -6 7 -20 3 -33z m-46
-54 c0 -5 -4 -3 -9 5 -9 13 -10 13 -10 0 0 -9 7 -25 15 -38 13 -18 14 -26 4
-44 -10 -18 -14 -19 -17 -8 -4 10 -12 1 -23 -25 -16 -34 -17 -35 -12 -10 3 17
10 36 15 42 6 7 7 20 4 29 -3 9 -1 34 6 56 10 33 13 37 19 22 4 -11 8 -23 8
-29z m-52 -67 c-3 -8 -6 -5 -6 6 -1 11 2 17 5 13 3 -3 4 -12 1 -19z m13 -108
c0 -5 -5 -10 -11 -10 -5 0 -7 5 -4 10 3 6 8 10 11 10 2 0 4 -4 4 -10z"/>
<path d="M7392 6830 c0 -14 2 -19 5 -12 2 6 2 18 0 25 -3 6 -5 1 -5 -13z"/>
<path d="M7010 6310 c0 -19 3 -21 12 -12 9 9 9 15 0 24 -9 9 -12 7 -12 -12z"/>
<path d="M5361 7113 c7 -12 15 -20 18 -17 3 2 -3 12 -13 22 -17 16 -18 16 -5
-5z"/>
<path d="M3890 6540 c0 -321 2 -581 5 -578 7 7 6 1150 0 1156 -3 3 -5 -257 -5
-578z"/>
<path d="M6345 6535 c0 -324 1 -456 2 -292 2 164 2 430 0 590 -1 161 -2 27 -2
-298z"/>
<path d="M5541 7094 c0 -11 3 -14 6 -6 3 7 2 16 -1 19 -3 4 -6 -2 -5 -13z"/>
<path d="M2696 7055 c-3 -9 -5 -33 -5 -53 1 -34 2 -33 10 13 8 51 6 68 -5 40z"/>
<path d="M3603 7045 c-7 -8 -9 -16 -4 -19 5 -3 12 1 15 10 8 22 4 25 -11 9z"/>
<path d="M5562 7035 c0 -16 2 -22 5 -12 2 9 2 23 0 30 -3 6 -5 -1 -5 -18z"/>
<path d="M3291 7028 c0 -16 38 -106 38 -95 1 12 -31 107 -35 107 -2 0 -4 -6
-3 -12z"/>
<path d="M4832 6975 c0 -16 2 -22 5 -12 2 9 2 23 0 30 -3 6 -5 -1 -5 -18z"/>
<path d="M5402 6980 c0 -14 2 -19 5 -12 2 6 2 18 0 25 -3 6 -5 1 -5 -13z"/>
<path d="M3043 6920 c0 -41 2 -58 4 -37 2 20 2 54 0 75 -2 20 -4 3 -4 -38z"/>
<path d="M3490 6980 l-35 -7 43 -2 c23 0 42 4 42 9 0 6 -3 9 -7 9 -5 -1 -24
-5 -43 -9z"/>
<path d="M4664 6690 c0 -162 2 -229 3 -147 2 81 2 213 0 295 -1 81 -3 14 -3
-148z"/>
<path d="M5572 6704 c-1 -155 -4 -297 -7 -315 l-5 -34 10 32 c6 19 9 143 7
315 l-2 283 -3 -281z"/>
<path d="M2980 6960 c-9 -6 -10 -10 -3 -10 6 0 15 5 18 10 8 12 4 12 -15 0z"/>
<path d="M3332 6894 c-1 -12 -4 -37 -7 -55 -5 -31 -5 -32 5 -9 6 13 9 38 7 55
-2 18 -4 21 -5 9z"/>
<path d="M2753 6890 c2 -8 12 -16 23 -17 13 -2 15 -1 4 4 -8 3 -19 11 -23 17
-6 7 -7 6 -4 -4z"/>
<path d="M2896 6883 c-4 -4 -28 -10 -54 -14 l-47 -6 40 -1 c22 -1 51 5 65 13
14 8 20 14 14 15 -6 0 -14 -3 -18 -7z"/>
<path d="M3303 6810 c2 -8 -2 -23 -11 -32 -8 -10 -11 -18 -6 -18 17 0 33 36
22 51 -8 12 -9 12 -5 -1z"/>
<path d="M4834 6680 c0 -69 1 -97 3 -62 2 34 2 90 0 125 -2 34 -3 6 -3 -63z"/>
<path d="M5064 6680 c0 -69 1 -97 3 -62 2 34 2 90 0 125 -2 34 -3 6 -3 -63z"/>
<path d="M6625 6774 c-28 -21 -33 -171 -11 -286 26 -127 66 -198 175 -307 l94
-94 -19 -74 c-10 -40 -21 -78 -25 -84 -4 -7 -82 -8 -255 -1 -137 5 -271 6
-299 2 l-50 -8 65 0 c240 1 260 -1 260 -22 0 -17 -7 -20 -40 -20 -33 0 -40 -3
-40 -19 0 -19 8 -20 177 -19 165 1 179 3 194 21 17 22 44 15 35 -9 -3 -8 -2
-14 3 -14 5 0 12 12 15 26 5 19 11 24 24 19 9 -3 55 -8 101 -11 47 -3 87 -6
89 -8 2 -2 -34 -4 -79 -4 -45 -1 -82 -2 -83 -4 -2 -2 -1 -24 2 -50 3 -32 9
-49 20 -52 10 -3 -48 -3 -128 -1 -80 3 -808 5 -1617 5 l-1473 0 0 40 0 40 -40
0 -40 0 0 -40 0 -40 -142 -1 c-79 -1 -246 -3 -372 -4 -226 -3 -309 4 -235 19
26 5 31 9 19 16 -8 5 -22 10 -30 10 -13 0 -13 -1 0 -11 11 -8 8 -9 -13 -4 -21
4 -27 3 -21 -6 4 -8 3 -9 -4 -5 -17 10 -15 14 16 30 20 10 33 11 46 4 16 -9
18 -8 13 5 -3 9 -1 20 5 23 7 4 81 7 165 6 147 -2 153 -1 153 18 0 11 -5 20
-11 20 -5 0 -7 -5 -3 -12 5 -8 -2 -9 -26 -5 -18 4 -40 8 -49 8 -9 1 7 5 34 9
61 9 77 4 70 -21 -4 -11 -2 -19 4 -19 6 0 11 9 11 20 0 11 5 20 10 20 6 0 10
14 10 30 0 17 5 30 10 30 15 0 12 -41 -4 -59 -10 -11 -12 -21 -6 -31 8 -13 11
-12 22 3 10 13 19 16 33 11 19 -8 18 -9 -5 -16 -15 -5 1 -6 39 -3 35 3 91 6
125 6 55 1 57 2 23 9 -53 10 -58 20 -9 20 23 0 42 4 42 8 0 12 -154 2 -161
-11 -4 -6 -15 -7 -25 -2 -17 7 -16 9 6 15 14 5 48 8 75 9 28 1 65 5 83 10 18
6 132 11 252 13 224 3 303 15 118 17 -107 2 -456 -15 -518 -24 l-35 -6 -28
121 c-16 67 -27 122 -25 124 1 1 24 13 49 26 78 42 163 114 201 171 47 72 68
154 68 271 0 81 -3 97 -19 112 -19 17 -22 17 -73 -7 -72 -33 -166 -120 -150
-139 9 -11 7 -22 -9 -47 -11 -18 -23 -31 -26 -28 -3 3 4 19 16 36 12 16 17 32
12 35 -19 12 -66 -82 -89 -180 -13 -54 -21 -73 -25 -59 -9 29 -35 190 -42 260
-10 101 -15 115 -36 115 -11 0 -19 -7 -20 -17 0 -15 -2 -15 -9 2 -6 13 -9 15
-9 5 -1 -13 -2 -13 -11 0 -12 19 -12 23 0 -101 10 -100 39 -265 60 -339 l10
-35 -5 40 c-2 22 -7 67 -9 100 l-6 60 16 -75 c8 -41 15 -84 16 -96 0 -11 6
-21 14 -21 7 0 13 7 12 16 -3 47 3 70 17 65 9 -4 18 1 22 12 6 16 7 16 13 -2
9 -24 30 67 30 129 0 31 3 38 10 27 9 -13 13 -11 30 9 11 13 24 20 28 16 4 -4
1 -10 -5 -12 -7 -3 -13 -9 -13 -15 0 -6 7 -8 15 -4 12 4 15 -4 15 -39 l0 -45
-40 0 c-36 0 -40 -3 -40 -24 0 -13 -3 -31 -6 -40 -5 -13 2 -16 40 -16 43 0 46
-2 46 -26 0 -23 3 -26 28 -20 15 3 21 3 15 0 -7 -3 -13 -12 -13 -20 0 -8 -4
-14 -10 -14 -5 0 -10 6 -10 13 0 8 -3 9 -8 1 -4 -6 -36 -14 -71 -18 -68 -8
-90 -23 -91 -62 0 -19 -4 -21 -52 -16 -29 3 -55 8 -58 13 -3 4 -30 11 -60 15
-49 7 -52 8 -28 16 18 6 37 4 63 -6 51 -22 55 -20 55 13 0 19 -6 31 -17 35
-10 3 -5 4 10 2 23 -3 27 0 21 13 -3 9 -9 24 -11 34 -3 9 -10 17 -16 17 -6 0
-8 3 -4 6 8 8 -45 86 -97 142 -97 106 -201 152 -346 153 -110 1 -134 -10 -127
-56 12 -72 171 -263 266 -318 86 -51 202 -82 335 -89 21 -1 40 -7 41 -13 2 -5
14 -56 27 -113 16 -73 25 -97 29 -80 3 13 1 29 -4 36 -5 7 -7 15 -3 19 3 3 6
1 6 -6 0 -7 5 -9 10 -6 12 8 13 -26 1 -57 -8 -22 -19 -25 -136 -41 -177 -25
-300 -59 -319 -90 -7 -11 -6 -24 4 -43 l15 -26 230 6 c467 12 2418 17 3315 8
566 -6 932 -6 943 -1 27 15 21 56 -10 73 -57 29 -163 55 -297 73 l-138 18 7
35 c4 19 8 44 9 55 2 19 12 20 162 26 184 6 225 18 321 92 75 57 158 149 188
208 16 30 16 32 -4 53 -20 19 -32 21 -129 20 -121 -2 -213 -22 -282 -62 -46
-26 -180 -158 -180 -177 0 -5 -11 -20 -24 -33 l-24 -22 -7 30 c-8 35 -20 39
-28 8 l-6 -22 -25 23 c-18 17 -32 22 -50 17 -23 -6 -26 -3 -26 19 0 29 7 31
32 8 17 -15 18 -15 18 14 0 33 -14 43 -56 43 -22 0 -24 4 -24 42 0 39 -1 40
-14 22 -14 -18 -15 -18 -21 -1 -10 25 -38 22 -30 -3 4 -13 2 -20 -7 -20 -10 0
-13 16 -13 57 0 33 -5 58 -11 60 -20 7 -24 -27 -8 -59 9 -16 11 -27 5 -23 -17
10 -43 65 -31 65 5 0 10 5 10 10 0 6 -9 10 -20 10 -16 0 -20 7 -21 33 0 17 -1
89 -2 159 l-2 128 43 0 c30 0 41 4 36 12 -4 7 -3 8 4 4 6 -4 9 -13 6 -20 -3
-8 13 -29 36 -49 32 -27 42 -43 43 -69 2 -30 5 -33 36 -36 19 -1 37 -4 39 -7
2 -2 5 -68 7 -147 3 -178 1 -168 24 -168 59 0 23 271 -48 366 -60 79 -85 106
-127 134 -62 43 -86 51 -109 34z m57 -17 c14 -11 12 -13 -18 -13 -19 0 -34 4
-34 9 0 4 5 5 10 2 6 -3 10 -1 10 4 0 14 11 13 32 -2z m-3101 -51 c-13 -14
-33 -26 -44 -28 -11 -2 -22 -8 -24 -15 -3 -9 4 -9 29 -2 63 20 62 20 61 -56
-3 -138 2 -125 -42 -125 l-39 0 -4 68 c-2 37 -1 74 3 82 5 11 2 16 -12 17 -13
1 -19 -5 -19 -18 0 -10 -7 -19 -15 -19 -9 0 -12 6 -8 17 7 19 53 62 66 63 5 0
20 9 34 20 35 27 41 25 14 -4z m58 2 c11 -31 11 -148 0 -148 -5 0 -7 -11 -3
-25 3 -14 3 -37 -1 -52 -12 -48 -26 -2 -19 64 3 32 6 76 6 98 0 34 1 36 8 15
7 -21 8 -21 9 -5 0 11 -2 31 -6 43 -4 18 -8 20 -14 10 -7 -10 -9 -9 -9 5 0 24
19 21 29 -5z m2978 -20 c-3 -7 -5 -2 -5 12 0 14 2 19 5 13 2 -7 2 -19 0 -25z
m155 5 c31 -33 78 -102 78 -114 0 -21 -17 -6 -32 29 -9 20 -33 54 -54 75 -20
20 -33 37 -28 37 6 0 22 -12 36 -27z m-3585 -70 c-3 -10 -5 -2 -5 17 0 19 2
27 5 18 2 -10 2 -26 0 -35z m47 -55 c-3 -86 -7 -104 -20 -107 -13 -2 -15 1 -9
15 6 16 23 137 24 182 1 6 3 12 5 12 3 0 3 -46 0 -102z m3393 50 c-3 -7 -5 -2
-5 12 0 14 2 19 5 13 2 -7 2 -19 0 -25z m-3862 -23 c-5 -2 -37 -7 -70 -11 -55
-6 -58 -8 -35 -18 22 -9 24 -14 15 -32 -12 -24 -31 -21 -46 9 -9 20 -9 21 4 4
10 -12 17 -15 22 -7 4 6 -1 17 -11 25 -20 14 -17 18 31 28 24 5 105 7 90 2z
m83 -5 c15 -1 15 -2 -1 -11 -13 -8 -22 -6 -35 7 -16 17 -16 18 1 11 10 -4 26
-7 35 -7z m601 -7 c0 -10 -4 -27 -9 -38 -6 -15 -7 -11 -7 18 1 20 5 37 9 37 4
0 8 -8 7 -17z m-246 -6 c3 -8 1 -20 -4 -28 -6 -10 -9 -7 -9 14 0 29 5 35 13
14z m-410 -4 c-7 -2 -19 -2 -25 0 -7 3 -2 5 12 5 14 0 19 -2 13 -5z m127 -8
c0 -2 -14 -3 -31 -3 -17 1 -25 4 -18 8 10 7 49 2 49 -5z m333 -40 c4 -32 3
-43 -3 -30 -8 19 -14 93 -6 84 2 -2 6 -26 9 -54z m257 45 c0 -5 -9 -10 -21
-10 -11 0 -17 5 -14 10 3 6 13 10 21 10 8 0 14 -4 14 -10z m-790 -35 c0 -14
-2 -25 -4 -25 -2 0 -6 11 -8 25 -3 14 -1 25 3 25 5 0 9 -11 9 -25z m275 -14
c3 -6 -3 -9 -14 -8 -11 0 -17 5 -15 9 7 11 22 10 29 -1z m-295 -36 c10 -12 10
-15 -1 -15 -10 0 -10 -3 -1 -12 7 -7 12 -17 12 -22 -1 -15 -40 36 -40 52 0 16
15 15 30 -3z m372 -35 c51 -57 56 -71 52 -147 -3 -59 -2 -63 19 -64 21 -1 20
-2 -3 -9 -14 -4 -34 -8 -45 -8 -16 0 -15 2 5 8 15 5 -23 7 -93 7 -93 -1 -120
2 -128 14 -5 8 -9 10 -9 5 0 -5 -7 -3 -15 4 -8 7 -12 17 -9 22 3 5 0 8 -7 6
-8 -1 -15 1 -16 7 -2 5 7 9 20 9 17 0 22 -5 21 -22 -2 -30 9 -18 14 14 3 25 1
26 -40 22 l-43 -3 1 40 c1 40 1 40 42 43 42 3 42 3 42 43 0 39 0 39 39 39 22
0 42 4 45 9 3 5 20 8 36 7 23 -1 42 -13 72 -46z m-272 -10 c0 -28 -4 -40 -15
-41 -28 -3 -33 -4 -40 -10 -3 -4 4 -6 16 -5 16 1 23 -5 24 -22 1 -13 -3 -26
-8 -29 -6 -3 -8 -2 -4 3 6 10 -19 49 -31 49 -4 0 -6 3 -4 8 1 4 -4 7 -11 7
-12 0 -14 19 -8 73 1 4 19 7 41 7 l40 0 0 -40z m4106 25 c-3 -9 1 -41 9 -72
17 -65 19 -107 6 -98 -5 3 -12 -5 -15 -17 -3 -13 -3 11 -1 52 2 46 0 67 -5 55
-7 -16 -8 -13 -8 15 1 45 7 80 14 80 3 0 3 -7 0 -15z m-3646 -34 c0 -11 5 -23
10 -26 6 -3 9 -18 9 -33 l-1 -27 -9 30 c-5 21 -7 10 -3 -35 2 -42 1 -58 -5
-45 -11 27 -19 155 -9 155 4 0 8 -9 8 -19z m87 -3 c-3 -8 -6 -5 -6 6 -1 11 2
17 5 13 3 -3 4 -12 1 -19z m-10 -40 c-3 -8 -6 -5 -6 6 -1 11 2 17 5 13 3 -3 4
-12 1 -19z m202 -2 c7 -9 8 -17 2 -20 -5 -3 -12 0 -15 6 -3 7 -4 4 -1 -8 9
-34 -16 -57 -53 -49 -29 6 -32 10 -32 46 l0 39 44 0 c25 0 48 -6 55 -14z m54
-3 c-6 -16 -11 -16 -28 1 -12 12 -11 14 9 12 14 0 22 -6 19 -13z m-449 -9 c3
-8 2 -12 -4 -9 -6 3 -10 10 -10 16 0 14 7 11 14 -7z m3563 -16 c-3 -8 -6 -5
-6 6 -1 11 2 17 5 13 3 -3 4 -12 1 -19z m729 13 c-3 -5 -36 -12 -73 -16 -53
-6 -63 -10 -43 -16 20 -5 21 -7 5 -7 -11 0 -29 3 -40 7 -19 8 -19 8 5 16 14 4
50 11 80 15 30 4 59 8 63 9 5 0 6 -3 3 -8z m167 -10 c19 -19 -5 -30 -48 -21
l-40 8 45 2 45 2 -39 8 c-21 4 -47 5 -57 3 -9 -3 -26 0 -36 7 -14 9 -4 10 50
7 38 -3 74 -10 80 -16z m-4033 -8 c-1 -14 -61 -75 -68 -69 -3 4 6 17 21 30 15
13 27 28 27 35 0 6 5 11 10 11 6 0 10 -3 10 -7z m-406 -12 c3 -5 -2 -15 -12
-22 -15 -12 -16 -12 -5 2 7 9 10 19 6 22 -3 4 -4 7 0 7 3 0 8 -4 11 -9z m4331
-5 c29 -12 28 -13 -28 -12 -36 0 -51 3 -40 8 11 5 3 7 -22 5 l-40 -2 -3 -47
-3 -48 -40 0 c-39 0 -39 0 -39 -40 l0 -40 43 0 42 0 -1 -41 -1 -42 -81 -1 -82
-1 0 43 0 42 -40 0 c-41 0 -46 6 -41 54 1 14 -5 11 -29 -14 -16 -18 -30 -28
-30 -22 0 16 130 142 148 143 9 1 42 1 73 1 34 -1 64 4 75 13 24 18 99 18 139
1z m71 -15 c-4 -5 -1 -11 5 -13 8 -3 6 -13 -7 -34 -25 -40 -121 -134 -136
-134 -7 0 -2 7 10 16 16 11 21 22 17 37 -2 12 -2 16 1 10 7 -15 34 -17 34 -3
0 5 13 22 29 37 38 37 47 68 24 82 -16 9 -16 10 5 11 13 0 21 -4 18 -9z
m-4380 -35 c19 -20 18 -21 -19 -22 -32 0 -33 1 -18 18 19 22 19 22 37 4z
m3584 -38 c0 -6 7 -20 17 -30 9 -10 13 -18 10 -18 -9 0 -47 42 -47 52 0 4 5 8
10 8 6 0 10 -5 10 -12z m-3325 -18 c-3 -5 -12 -10 -18 -10 -7 0 -6 4 3 10 19
12 23 12 15 0z m-376 -16 c2 -2 -6 -4 -18 -4 -12 0 -19 -4 -16 -10 3 -5 0 -8
-7 -6 -7 3 -26 7 -43 11 -27 7 -28 8 -10 15 18 8 84 3 94 -6z m325 10 c13 -5
13 -8 2 -19 -7 -8 -27 -17 -42 -21 -26 -7 -28 -6 -15 9 7 9 17 14 22 11 5 -3
14 -2 20 2 8 4 7 9 -2 15 -16 10 -8 12 15 3z m-70 -60 c9 -24 6 -42 -4 -19 -8
19 -9 19 -9 1 -1 -15 -4 -17 -12 -9 -13 13 -5 43 10 43 5 0 12 -7 15 -16z
m3786 12 c0 -2 -7 -7 -16 -10 -8 -3 -12 -2 -9 4 6 10 25 14 25 6z m-235 -37
c11 -17 -1 -21 -15 -4 -8 9 -8 15 -2 15 6 0 14 -5 17 -11z m154 -31 c-9 -17
-14 -19 -17 -8 -3 7 0 16 7 18 6 2 11 11 12 20 0 10 3 12 5 5 3 -7 0 -22 -7
-35z m365 5 c-8 -9 -18 -12 -22 -8 -4 4 -2 10 5 12 7 2 9 12 6 21 -6 15 -5 15
10 4 15 -13 15 -16 1 -29z m-4104 -8 c0 -5 -5 -3 -10 5 -5 8 -10 20 -10 25 0
6 5 3 10 -5 5 -8 10 -19 10 -25z m30 -2 c0 -20 -17 -50 -24 -43 -2 3 -2 17 1
33 6 30 23 37 23 10z m17 -15 c-3 -8 -6 -5 -6 6 -1 11 2 17 5 13 3 -3 4 -12 1
-19z m10 -45 c7 -15 11 -29 8 -32 -7 -6 -34 31 -35 47 0 21 14 13 27 -15z
m3557 2 c-6 -26 11 -59 26 -50 5 3 6 -4 3 -16 -6 -20 -6 -20 -16 -3 -6 11 -16
24 -23 31 -13 13 -7 63 7 63 5 0 7 -11 3 -25z m88 13 c5 -15 213 -25 222 -10
4 7 20 9 38 5 24 -5 29 -3 23 7 -6 9 -4 11 4 5 10 -5 10 -10 1 -19 -7 -7 -64
-11 -168 -11 -141 0 -157 2 -160 18 -4 19 34 25 40 5z m335 6 c-3 -3 -12 -4
-19 -1 -8 3 -5 6 6 6 11 1 17 -2 13 -5z m-144 -11 c-13 -2 -33 -2 -45 0 -13 2
-3 4 22 4 25 0 35 -2 23 -4z m-243 -17 c0 -8 -4 -18 -10 -21 -5 -3 -10 3 -10
14 0 12 5 21 10 21 6 0 10 -6 10 -14z m-3620 -5 c0 -6 -4 -13 -10 -16 -5 -3
-10 1 -10 9 0 9 5 16 10 16 6 0 10 -4 10 -9z m3594 -94 c4 -18 3 -26 -3 -23
-5 4 -11 -2 -13 -11 -2 -10 -4 4 -4 30 -1 50 9 52 20 4z m-34 12 c0 -6 -4 -7
-10 -4 -5 3 -10 11 -10 16 0 6 5 7 10 4 6 -3 10 -11 10 -16z m-81 -55 c9 -8
-125 -2 -144 6 -12 4 14 6 60 3 44 -3 82 -7 84 -9z m-44 -23 c46 -7 43 -8 -32
-8 -46 -1 -83 3 -83 8 0 10 44 10 115 0z m-3608 -7 c-3 -3 -12 -4 -19 -1 -8 3
-5 6 6 6 11 1 17 -2 13 -5z m4166 -43 c25 -11 48 -25 52 -31 4 -6 -12 -2 -35
10 -23 12 -44 19 -47 16 -3 -3 12 -13 33 -23 69 -33 52 -38 -118 -38 -90 0
-144 1 -120 3 42 3 42 3 42 43 l0 39 74 0 c51 0 88 -6 119 -19z"/>
<path d="M3622 6510 c0 -19 2 -27 5 -17 2 9 2 25 0 35 -3 9 -5 1 -5 -18z"/>
<path d="M2965 6482 c-3 -3 -5 -23 -5 -44 l0 -38 52 0 c40 0 49 3 40 12 -7 7
-12 16 -12 21 0 5 9 -1 19 -14 11 -13 23 -21 26 -17 14 14 -57 83 -86 84 -16
1 -31 -1 -34 -4z"/>
<path d="M6911 6334 c0 -11 3 -14 6 -6 3 7 2 16 -1 19 -3 4 -6 -2 -5 -13z"/>
<path d="M7184 6296 c-7 -7 -24 -22 -39 -33 l-28 -20 38 1 c25 1 40 6 43 16 4
12 2 13 -9 3 -7 -7 -18 -13 -23 -13 -6 1 0 9 12 20 13 11 22 24 20 29 -1 5 -8
3 -14 -3z"/>
<path d="M2998 6213 c7 -3 16 -2 19 1 4 3 -2 6 -13 5 -11 0 -14 -3 -6 -6z"/>
<path d="M7283 5778 c0 -8 15 -14 36 -15 l36 -2 -34 15 c-40 17 -38 17 -38 2z"/>
<path d="M3110 6755 c7 -8 17 -15 22 -15 5 0 3 7 -6 15 -8 8 -18 15 -22 15 -3
0 -1 -7 6 -15z"/>
<path d="M6720 6665 c0 -9 7 -18 15 -22 23 -8 24 0 3 20 -15 14 -18 15 -18 2z"/>
<path d="M5401 6544 c0 -11 3 -14 6 -6 3 7 2 16 -1 19 -3 4 -6 -2 -5 -13z"/>
<path d="M5061 6534 c0 -11 3 -14 6 -6 3 7 2 16 -1 19 -3 4 -6 -2 -5 -13z"/>
<path d="M4832 6520 c0 -14 2 -19 5 -12 2 6 2 18 0 25 -3 6 -5 1 -5 -13z"/>
<path d="M4918 6483 c23 -2 61 -2 85 0 23 2 4 4 -43 4 -47 0 -66 -2 -42 -4z"/>
<path d="M5243 6483 c26 -2 67 -2 90 0 23 2 2 3 -48 3 -49 0 -68 -1 -42 -3z"/>
<path d="M5531 6384 c0 -11 3 -14 6 -6 3 7 2 16 -1 19 -3 4 -6 -2 -5 -13z"/>
<path d="M6164 6240 c0 -91 2 -128 3 -82 2 45 2 119 0 165 -1 45 -3 8 -3 -83z"/>
<path d="M4670 6376 c0 -8 4 -17 9 -20 5 -4 7 3 4 14 -6 23 -13 26 -13 6z"/>
<path d="M4701 6334 c0 -11 3 -14 6 -6 3 7 2 16 -1 19 -3 4 -6 -2 -5 -13z"/>
<path d="M4728 6323 c6 -2 18 -2 25 0 6 3 1 5 -13 5 -14 0 -19 -2 -12 -5z"/>
<path d="M5493 6323 c9 -2 23 -2 30 0 6 3 -1 5 -18 5 -16 0 -22 -2 -12 -5z"/>
<path d="M5078 6313 c23 -2 61 -2 85 0 23 2 4 4 -43 4 -47 0 -66 -2 -42 -4z"/>
<path d="M6161 5984 c0 -11 3 -14 6 -6 3 7 2 16 -1 19 -3 4 -6 -2 -5 -13z"/>
<path d="M4066 5942 c-3 -3 -6 -8 -6 -11 0 -3 96 -7 213 -7 116 -1 283 -2 370
-3 l157 -1 0 -40 0 -40 120 0 120 0 0 40 0 40 40 0 40 0 0 -40 0 -40 320 0
c313 0 320 0 320 -20 0 -19 7 -20 120 -20 113 0 120 1 120 20 0 17 7 20 40 20
l40 0 0 40 c0 38 1 40 33 41 17 1 51 1 75 -1 23 -1 42 2 42 8 0 5 -56 12 -124
16 -148 8 -2032 7 -2040 -2z"/>
<path d="M4400 5880 l0 -40 40 0 40 0 0 40 0 40 -40 0 -40 0 0 -40z"/>
<path d="M6911 5854 c0 -11 3 -14 6 -6 3 7 2 16 -1 19 -3 4 -6 -2 -5 -13z"/>
<path d="M6931 5854 c0 -11 3 -14 6 -6 3 7 2 16 -1 19 -3 4 -6 -2 -5 -13z"/>
<path d="M4560 5820 c0 -17 7 -20 40 -20 33 0 40 3 40 20 0 17 -7 20 -40 20
-33 0 -40 -3 -40 -20z"/>
<path d="M5230 5360 c-36 -16 -95 -36 -133 -46 -74 -18 -96 -39 -77 -74 6 -12
22 -25 35 -30 13 -5 32 -21 42 -37 16 -25 18 -62 21 -423 2 -217 0 -419 -3
-449 -7 -55 -24 -80 -86 -122 -21 -15 -22 -19 -11 -43 l12 -26 208 0 c148 0
211 3 220 12 22 22 13 47 -26 72 -72 45 -66 1 -72 613 -5 534 -6 555 -24 569
-26 19 -31 18 -106 -16z"/>
<path d="M5756 5359 c-38 -17 -98 -38 -135 -47 -60 -15 -66 -20 -69 -44 -3
-23 3 -32 31 -48 19 -11 39 -32 45 -46 9 -18 12 -155 12 -473 0 -442 0 -449
-21 -475 -12 -15 -33 -32 -46 -37 -20 -7 -24 -15 -21 -41 l3 -33 195 -3 c107
-1 205 0 218 3 16 4 22 13 22 34 0 22 -8 34 -34 49 -74 44 -70 13 -76 624 -6
643 5 594 -124 537z"/>
<path d="M4604 5341 c-48 -29 -64 -59 -64 -118 0 -46 4 -58 33 -90 29 -31 41
-37 88 -40 95 -7 159 50 159 140 0 98 -128 162 -216 108z"/>
<path d="M3123 5314 c-9 -25 3 -49 32 -63 65 -30 87 -66 180 -291 24 -58 69
-166 100 -240 31 -74 76 -182 100 -240 24 -58 62 -150 85 -205 23 -55 48 -117
57 -138 l15 -38 96 3 95 3 204 510 c111 281 213 532 225 558 18 39 30 52 70
70 50 23 69 50 48 71 -7 7 -66 11 -176 12 -148 1 -166 -1 -174 -17 -15 -26 -2
-48 41 -69 41 -21 59 -46 59 -80 0 -12 -37 -114 -82 -228 -44 -114 -114 -290
-154 -392 -40 -102 -77 -183 -81 -181 -4 3 -24 46 -44 95 -20 50 -90 224 -157
386 -66 162 -123 311 -127 330 -7 39 5 56 60 81 24 11 30 21 30 44 l0 30 -249
0 c-189 1 -249 -2 -253 -11z"/>
<path d="M4692 4970 c-23 -10 -78 -31 -122 -46 -47 -15 -85 -34 -90 -44 -10
-19 -4 -50 10 -50 5 0 25 -15 44 -34 l36 -33 0 -246 c0 -135 -4 -257 -9 -270
-6 -14 -28 -35 -50 -48 -40 -22 -48 -39 -35 -73 5 -14 35 -16 231 -16 l224 0
-3 37 c-3 31 -9 40 -40 57 -70 36 -72 48 -76 426 -3 294 -5 337 -20 348 -22
17 -50 15 -100 -8z"/>
<path d="M6382 4976 c-85 -21 -198 -82 -229 -123 -33 -43 -36 -112 -7 -144 37
-41 129 -32 159 15 7 12 17 38 20 59 16 82 124 129 208 88 60 -29 89 -83 95
-176 l4 -72 -88 -6 c-204 -16 -353 -83 -421 -190 -63 -100 -30 -240 71 -302
46 -28 56 -30 150 -30 94 0 106 2 168 33 36 18 80 48 96 67 l31 34 11 -33 c21
-66 80 -100 170 -99 88 0 161 35 189 90 19 37 4 53 -49 53 -84 0 -84 2 -90
294 -5 233 -7 254 -27 292 -29 54 -98 114 -159 138 -64 24 -229 31 -302 12z
m248 -520 c0 -116 -26 -168 -102 -207 -64 -33 -133 -23 -182 26 -22 22 -26 35
-26 80 0 46 5 59 30 89 49 56 121 83 223 85 l57 1 0 -74z"/>
<path d="M4700 3892 c-36 -15 -92 -34 -125 -41 -71 -16 -85 -25 -85 -57 0 -17
12 -31 40 -49 23 -14 45 -37 50 -51 13 -34 13 -854 0 -888 -5 -14 -27 -37 -50
-51 -44 -28 -55 -67 -22 -83 20 -10 404 -8 420 2 26 16 13 55 -26 80 -72 45
-66 3 -72 603 -4 469 -7 545 -20 553 -23 15 -39 12 -110 -18z"/>
<path d="M6235 3894 c-33 -14 -89 -32 -125 -40 -75 -18 -90 -28 -90 -60 0 -16
13 -31 42 -51 23 -15 45 -39 49 -53 11 -39 10 -830 -1 -870 -7 -25 -21 -42
-50 -60 -31 -19 -40 -31 -40 -52 0 -15 4 -29 10 -33 13 -8 414 -10 428 -1 7 4
12 20 12 37 0 25 -6 32 -40 45 -56 23 -70 54 -70 158 l0 85 37 30 c21 17 42
30 47 28 6 -2 24 -26 40 -53 92 -152 201 -316 215 -324 9 -5 79 -10 154 -12
114 -2 139 0 147 12 15 22 8 51 -15 64 -81 43 -95 59 -230 262 -76 115 -138
213 -139 219 -1 10 92 94 164 147 19 14 62 35 95 47 75 28 93 52 62 83 -11 11
-53 13 -185 11 -95 -1 -176 -4 -182 -8 -18 -11 -11 -53 10 -60 31 -10 54 -50
41 -72 -10 -20 -245 -243 -255 -243 -3 0 -6 169 -6 375 0 362 -1 376 -20 395
-25 25 -32 25 -105 -6z"/>
<path d="M7275 3894 c-33 -14 -89 -32 -125 -40 -36 -9 -70 -20 -77 -26 -23
-19 -15 -53 17 -71 60 -36 60 -33 60 -516 l0 -439 -32 -26 c-62 -48 -67 -54
-61 -75 3 -12 10 -24 16 -28 16 -9 378 -11 405 -1 16 5 22 15 22 36 0 24 -7
32 -38 46 -54 24 -65 48 -70 150 l-5 90 44 37 44 37 40 -61 c22 -34 78 -122
124 -195 57 -89 91 -134 105 -137 11 -2 75 -6 141 -10 133 -6 160 2 153 45 -2
16 -18 31 -53 50 -35 19 -63 46 -95 91 -67 95 -252 380 -248 383 1 1 32 27 68
57 88 75 142 110 209 134 40 14 57 26 59 40 5 46 -6 48 -191 48 -95 0 -179 -3
-185 -7 -24 -15 -13 -53 18 -66 32 -13 45 -39 35 -67 -7 -18 -236 -235 -255
-241 -7 -3 -10 129 -10 376 0 457 6 437 -115 386z"/>
<path d="M1420 3856 c-23 -23 -10 -55 29 -75 72 -37 72 -33 69 -530 l-3 -439
-23 -25 c-13 -14 -37 -31 -53 -37 -37 -16 -42 -65 -7 -76 36 -11 429 -10 445
1 28 20 12 66 -31 90 -59 33 -65 52 -66 205 l0 135 64 70 c35 39 66 68 69 65
6 -7 237 -380 253 -410 19 -35 17 -54 -6 -75 -23 -21 -26 -57 -7 -73 14 -12
429 -18 447 -7 5 3 10 19 10 35 0 24 -7 33 -40 50 -22 11 -54 35 -71 53 -32
33 -419 611 -419 625 0 10 293 291 329 315 14 9 46 22 69 29 47 12 57 25 48
62 l-6 23 -211 -1 c-171 -2 -212 -5 -220 -17 -16 -25 -10 -37 33 -61 81 -45
78 -59 -38 -183 -41 -44 -125 -137 -187 -206 l-112 -126 -3 220 c-3 247 -2
251 68 287 30 15 40 26 40 45 0 13 -6 27 -12 32 -18 11 -447 10 -458 -1z"/>
<path d="M5755 3525 l-40 -47 -50 24 c-45 21 -64 23 -190 23 -124 0 -147 -3
-198 -24 -73 -29 -152 -92 -194 -155 -108 -159 -89 -429 39 -562 l30 -32 -46
-63 c-25 -35 -46 -68 -46 -74 0 -19 23 -35 52 -35 22 0 35 11 70 60 30 43 47
59 58 54 94 -41 241 -56 342 -35 136 29 243 112 305 239 38 75 38 77 38 196 0
145 -20 206 -91 285 l-45 50 36 48 c43 57 43 87 0 91 -26 2 -37 -5 -70 -43z
m-240 -110 c17 -9 45 -29 60 -45 l27 -28 -24 -34 c-201 -270 -260 -351 -265
-364 -20 -53 -47 58 -48 196 0 77 5 119 18 158 21 58 59 109 91 122 34 14 106
11 141 -5z m161 -264 c46 -205 -33 -401 -161 -401 -49 0 -122 35 -147 71 l-19
25 81 109 c44 60 111 151 147 202 46 64 69 90 75 81 4 -7 15 -46 24 -87z"/>
<path d="M2904 3520 c-27 -9 -71 -27 -99 -38 -27 -11 -65 -26 -82 -33 -44 -16
-47 -61 -5 -83 66 -34 67 -36 70 -281 4 -264 -1 -292 -57 -323 -21 -12 -42
-29 -45 -38 -8 -21 11 -54 32 -55 9 0 107 -1 216 -2 159 -2 202 0 213 11 21
22 12 43 -27 64 -19 11 -46 31 -60 44 l-25 24 -3 228 c-2 214 -1 229 18 260
23 37 81 66 112 56 12 -3 41 -25 65 -47 56 -52 98 -55 143 -12 58 56 64 139
12 188 -36 34 -72 47 -133 47 -91 0 -140 -36 -197 -144 l-27 -51 -3 80 c-4
114 -30 137 -118 105z"/>
<path d="M3795 3517 c-228 -58 -361 -282 -315 -527 31 -162 139 -278 305 -325
80 -24 255 -16 335 14 109 41 185 109 235 209 32 65 44 122 45 214 0 184 -98
337 -257 399 -71 27 -268 36 -348 16z m179 -91 c121 -51 193 -217 184 -427 -4
-81 -9 -103 -34 -149 -39 -72 -81 -100 -151 -100 -105 0 -189 81 -232 224 -27
89 -29 249 -4 327 19 57 78 125 116 132 46 9 89 7 121 -7z"/>
<path d="M8308 3506 c-183 -65 -280 -208 -279 -409 0 -137 37 -238 119 -329
73 -81 171 -118 312 -118 145 0 237 36 327 126 46 46 54 59 51 85 -5 52 -30
58 -82 21 -118 -85 -223 -104 -315 -57 -76 38 -133 118 -150 210 l-8 45 236 0
c132 0 252 5 273 11 46 12 53 33 45 129 -10 125 -73 217 -187 276 -49 26 -67
29 -165 32 -96 2 -119 -1 -177 -22z m222 -84 c58 -42 91 -170 56 -218 -13 -17
-27 -19 -158 -19 l-143 0 -3 38 c-8 91 52 194 124 217 39 12 93 5 124 -18z"/>
<path d="M2456 2234 c-22 -22 -20 -51 5 -64 25 -14 44 -8 59 19 8 17 7 24 -10
41 -24 24 -34 25 -54 4z"/>
<path d="M5048 2239 c-35 -20 -18 -79 22 -79 13 0 40 30 40 45 0 14 -27 45
-38 45 -4 0 -15 -5 -24 -11z"/>
<path d="M7052 2243 c-23 -4 -23 -8 -20 -84 2 -43 1 -78 -2 -76 -93 57 -172
39 -211 -47 -23 -52 -24 -100 0 -151 25 -55 52 -76 106 -83 37 -4 52 0 75 17
34 25 40 26 40 7 0 -8 13 -16 30 -18 l30 -5 -2 220 c-2 137 -7 221 -13 222 -5
1 -20 0 -33 -2z m-43 -209 c32 -40 29 -123 -4 -154 -27 -25 -76 -30 -101 -9
-20 16 -36 83 -28 116 17 72 93 98 133 47z"/>
<path d="M7568 2239 c-44 -25 -3 -93 42 -69 26 14 26 56 1 70 -23 12 -22 12
-43 -1z"/>
<path d="M1830 2020 l0 -210 40 0 40 0 0 69 0 68 69 5 c91 7 136 34 152 90 12
46 5 99 -17 134 -25 37 -84 54 -189 54 l-95 0 0 -210z m176 140 c32 0 54 -26
54 -66 0 -52 -28 -74 -95 -74 l-55 0 0 68 c0 38 3 72 7 76 5 4 21 5 37 2 16
-3 39 -6 52 -6z"/>
<path d="M3310 2182 c-8 -4 -15 -20 -15 -37 0 -23 -5 -31 -22 -33 -17 -2 -23
-10 -23 -27 0 -17 6 -25 23 -27 19 -3 22 -8 19 -48 -8 -144 29 -214 110 -208
37 3 43 6 46 28 2 21 -2 25 -24 27 -42 2 -52 21 -56 116 l-4 87 43 0 c39 0 43
2 43 25 0 23 -4 25 -44 25 l-45 0 2 38 c2 30 -2 37 -18 39 -11 1 -27 -1 -35
-5z"/>
<path d="M2306 2095 c-34 -23 -36 -23 -36 -5 0 16 -7 20 -30 20 l-30 0 0 -153
0 -153 35 4 35 4 0 93 c0 108 18 145 71 145 27 0 29 3 29 35 0 43 -21 46 -74
10z"/>
<path d="M3000 2105 c-32 -14 -69 -50 -70 -66 0 -4 11 -10 25 -13 18 -5 32 -1
47 14 24 22 80 27 96 8 5 -7 12 -23 16 -34 6 -20 2 -22 -51 -29 -106 -13 -152
-51 -138 -114 14 -66 96 -91 163 -51 24 15 32 16 32 6 0 -8 13 -16 30 -18 l30
-5 0 118 c0 123 -8 157 -41 177 -33 21 -101 24 -139 7z m110 -190 c0 -45 -78
-83 -108 -53 -31 31 -5 67 56 78 46 8 52 5 52 -25z"/>
<path d="M3775 2100 c-47 -24 -45 -24 -45 -4 0 11 -8 14 -31 12 l-30 -3 0
-205 0 -205 37 -3 36 -3 -4 75 c-2 42 -2 76 0 76 1 0 16 -10 32 -21 42 -32
114 -22 152 20 49 55 58 142 22 213 -31 59 -106 81 -169 48z m94 -66 c48 -61
15 -174 -50 -174 -44 0 -66 15 -79 56 -24 73 12 144 75 144 24 0 39 -7 54 -26z"/>
<path d="M4095 2102 c-22 -11 -46 -29 -53 -41 -11 -19 -10 -22 13 -31 21 -8
30 -6 47 10 30 28 82 26 102 -2 26 -37 19 -45 -41 -53 -68 -8 -107 -26 -129
-60 -21 -32 -10 -78 24 -106 33 -26 110 -22 139 6 16 16 18 17 21 3 3 -15 60
-31 66 -19 1 3 0 63 -3 133 -7 150 -15 163 -96 173 -38 4 -60 1 -90 -13z m115
-193 c-11 -37 -36 -58 -70 -59 -50 0 -67 47 -28 74 12 9 41 16 65 16 l42 0 -9
-31z"/>
<path d="M4425 2111 c-54 -24 -76 -91 -41 -130 10 -11 32 -25 49 -32 83 -32
97 -41 97 -64 0 -39 -61 -48 -102 -16 -15 13 -33 18 -46 14 -28 -7 -28 -15 1
-48 44 -52 176 -42 207 14 30 57 -9 115 -95 142 -27 8 -53 22 -58 31 -23 36
45 67 73 33 14 -17 38 -19 60 -5 13 8 11 13 -11 36 -29 28 -97 41 -134 25z"/>
<path d="M4797 2110 c-16 -5 -35 -14 -43 -21 -11 -9 -14 -8 -14 5 0 12 -9 16
-35 16 l-35 0 0 -150 0 -150 34 0 34 0 4 106 c3 97 5 107 27 125 13 10 31 19
41 19 10 0 28 -9 41 -19 22 -18 24 -28 27 -125 l4 -106 31 0 32 0 -4 122 c-2
68 -8 131 -13 141 -10 19 -67 48 -90 46 -7 0 -26 -5 -41 -9z"/>
<path d="M5317 2110 c-16 -5 -35 -14 -43 -21 -11 -9 -14 -8 -14 5 0 12 -9 16
-35 16 l-35 0 0 -149 0 -149 34 -4 34 -4 4 108 c3 115 10 131 59 143 17 4 33
0 50 -13 22 -19 24 -27 26 -129 1 -59 4 -107 7 -105 4 1 18 2 34 2 l27 0 -3
112 c-3 144 -6 155 -45 178 -34 21 -55 23 -100 10z"/>
<path d="M5621 2102 c-48 -24 -73 -62 -79 -121 -6 -61 23 -128 67 -154 47 -28
129 -19 153 17 4 6 8 -8 8 -31 0 -34 -5 -46 -27 -63 -34 -27 -95 -22 -121 8
-15 17 -21 18 -46 8 l-28 -11 21 -27 c58 -73 216 -59 258 23 9 16 13 78 13
192 l0 167 -30 0 c-20 0 -30 -5 -30 -15 0 -20 -9 -19 -45 5 -37 25 -70 25
-114 2z m105 -48 c53 -14 60 -143 10 -176 -6 -4 -28 -8 -48 -8 -48 0 -73 35
-72 99 1 35 7 49 28 68 28 24 45 27 82 17z"/>
<path d="M5973 2106 c-35 -16 -53 -43 -53 -78 0 -40 27 -65 95 -88 43 -14 66
-28 70 -41 15 -46 -51 -66 -97 -30 -26 21 -68 19 -68 -3 0 -7 12 -23 26 -37
22 -20 36 -24 89 -24 53 0 68 4 88 23 31 29 38 61 22 100 -10 22 -27 34 -71
52 -71 28 -84 37 -84 60 0 34 50 40 80 10 16 -16 25 -18 45 -10 22 8 24 13 15
30 -22 41 -104 60 -157 36z"/>
<path d="M6290 2098 c-60 -31 -82 -74 -77 -151 6 -98 67 -151 163 -144 86 6
136 61 138 151 1 127 -114 201 -224 144z m129 -64 c23 -29 29 -110 11 -144
-26 -48 -110 -43 -138 10 -17 33 -10 115 13 140 28 31 88 27 114 -6z"/>
<path d="M6710 2113 c-8 -3 -25 -15 -37 -26 l-23 -20 0 22 c0 19 -5 22 -32 19
-18 -2 -32 -6 -30 -10 1 -5 2 -71 2 -148 l0 -140 35 0 35 0 0 98 c0 90 2 100
23 120 13 12 35 22 50 22 24 0 27 4 27 35 0 36 -11 42 -50 28z"/>
<path d="M7314 2110 c-12 -5 -25 -13 -29 -19 -9 -16 -25 -13 -25 4 0 10 -11
15 -35 15 l-36 0 3 -152 3 -151 33 -1 32 -1 0 92 c0 51 5 103 11 116 14 30 52
49 84 41 33 -8 45 -50 45 -155 l0 -89 34 0 33 0 2 95 c3 122 -10 170 -52 195
-34 21 -68 24 -103 10z"/>
<path d="M7845 2113 c-11 -3 -30 -14 -42 -26 l-23 -20 0 21 c0 18 -6 22 -32
22 l-33 0 0 -150 0 -150 35 0 35 0 -3 86 c-4 97 7 136 44 153 35 16 51 14 74
-9 17 -17 20 -33 20 -125 l0 -105 35 0 35 0 0 110 c0 110 -9 151 -42 177 -16
14 -76 23 -103 16z"/>
<path d="M8141 2102 c-48 -24 -73 -62 -79 -121 -6 -67 27 -137 74 -157 48 -20
97 -17 128 7 l26 20 0 -36 c0 -25 -8 -43 -26 -62 -22 -22 -32 -25 -67 -20 -23
3 -49 14 -57 24 -15 18 -46 19 -64 2 -13 -12 21 -49 61 -65 44 -19 111 -17
153 4 60 30 70 64 70 250 l0 162 -30 0 c-20 0 -30 -5 -30 -15 0 -19 2 -19 -48
5 -50 24 -67 25 -111 2z m128 -68 c46 -59 14 -164 -50 -164 -44 0 -66 15 -79
55 -23 69 14 135 75 135 24 0 39 -7 54 -26z"/>
<path d="M2450 1957 l0 -153 35 4 35 4 0 149 0 149 -35 0 -35 0 0 -153z"/>
<path d="M2580 2107 c0 -8 47 -128 83 -212 34 -80 34 -80 72 -80 l38 0 37 95
c21 52 47 119 59 148 l21 52 -38 0 -37 0 -39 -115 -40 -115 -42 112 -42 113
-36 3 c-20 2 -36 1 -36 -1z"/>
<path d="M5030 1961 l0 -149 35 -4 35 -4 0 153 0 153 -35 0 -35 0 0 -149z"/>
<path d="M7556 1957 c1 -83 4 -151 8 -149 3 1 19 2 35 2 l30 0 0 150 0 150
-37 0 -37 0 1 -153z"/>
</g>
</svg>
